<svg xmlns="http://www.w3.org/2000/svg" xmlns:xlink="http://www.w3.org/1999/xlink" width="500" zoomAndPan="magnify" viewBox="0 0 375 374.999991" height="500" preserveAspectRatio="xMidYMid meet" version="1.0"><defs><g/><clipPath id="89313008c9"><path d="M 150.386719 101.550781 L 224.636719 101.550781 L 224.636719 159.300781 L 150.386719 159.300781 Z M 150.386719 101.550781 " clip-rule="nonzero"/></clipPath></defs><g clip-path="url(#89313008c9)"><path fill="#3eb489" d="M 169.636719 109.914062 C 169.128906 109.914062 168.636719 110.011719 168.167969 110.207031 C 167.695312 110.398438 167.28125 110.675781 166.921875 111.035156 C 166.5625 111.394531 166.285156 111.808594 166.089844 112.277344 C 165.894531 112.746094 165.796875 113.234375 165.796875 113.742188 C 165.796875 114.25 165.894531 114.738281 166.089844 115.207031 C 166.285156 115.675781 166.5625 116.089844 166.921875 116.449219 C 167.28125 116.808594 167.695312 117.085938 168.167969 117.28125 C 168.636719 117.472656 169.125 117.570312 169.636719 117.570312 C 170.144531 117.570312 170.632812 117.472656 171.105469 117.28125 C 171.574219 117.085938 171.992188 116.808594 172.351562 116.449219 C 172.710938 116.089844 172.988281 115.675781 173.183594 115.207031 C 173.378906 114.738281 173.472656 114.25 173.472656 113.742188 C 173.472656 113.234375 173.375 112.746094 173.179688 112.277344 C 172.984375 111.808594 172.707031 111.398438 172.347656 111.039062 C 171.988281 110.679688 171.574219 110.402344 171.105469 110.207031 C 170.632812 110.011719 170.144531 109.914062 169.636719 109.914062 Z M 170.101562 119.46875 L 168.929688 132.894531 L 174.648438 136.574219 L 177.359375 129.390625 L 171.738281 119.089844 C 171.210938 119.296875 170.667969 119.421875 170.101562 119.46875 Z M 209.183594 154.652344 L 209.183594 151.601562 L 167.78125 151.601562 L 167.78125 154.652344 Z M 166.820312 156.570312 C 166.640625 156.570312 166.464844 156.605469 166.296875 156.675781 C 166.128906 156.746094 165.980469 156.84375 165.851562 156.972656 C 165.722656 157.101562 165.625 157.246094 165.554688 157.414062 C 165.484375 157.582031 165.453125 157.757812 165.453125 157.9375 C 165.453125 158.121094 165.484375 158.292969 165.554688 158.460938 C 165.625 158.628906 165.722656 158.777344 165.851562 158.90625 C 165.980469 159.03125 166.128906 159.132812 166.296875 159.199219 C 166.464844 159.269531 166.640625 159.304688 166.820312 159.304688 L 210.144531 159.304688 C 210.328125 159.304688 210.5 159.269531 210.667969 159.199219 C 210.835938 159.132812 210.984375 159.03125 211.113281 158.90625 C 211.242188 158.777344 211.339844 158.628906 211.410156 158.460938 C 211.480469 158.292969 211.515625 158.121094 211.515625 157.9375 C 211.515625 157.757812 211.480469 157.582031 211.410156 157.414062 C 211.339844 157.246094 211.242188 157.101562 211.113281 156.972656 C 210.984375 156.84375 210.835938 156.746094 210.667969 156.675781 C 210.5 156.605469 210.328125 156.570312 210.144531 156.570312 Z M 201.507812 145.035156 L 199.410156 139.476562 L 190.773438 145.035156 Z M 198.71875 137.640625 L 190.15625 143.152344 L 196.445312 131.621094 Z M 195.554688 129.25 L 187.511719 143.988281 L 179.46875 129.25 L 186.347656 111.007812 C 187.125 111.167969 187.898438 111.167969 188.675781 111.007812 Z M 197.660156 129.394531 L 200.371094 136.578125 L 206.09375 132.898438 L 204.921875 119.472656 C 204.355469 119.429688 203.808594 119.300781 203.28125 119.097656 Z M 201.066406 138.414062 L 206.28125 135.058594 L 207.152344 145.039062 L 203.5625 145.039062 Z M 216.058594 128.765625 L 208.109375 133.882812 L 208.898438 142.941406 L 216.84375 129.566406 C 216.554688 129.320312 216.296875 129.054688 216.058594 128.761719 Z M 220.566406 121.359375 C 221.074219 121.359375 221.5625 121.457031 222.035156 121.652344 C 222.503906 121.84375 222.917969 122.121094 223.277344 122.480469 C 223.636719 122.839844 223.914062 123.253906 224.109375 123.722656 C 224.304688 124.191406 224.402344 124.679688 224.402344 125.1875 C 224.402344 125.695312 224.304688 126.183594 224.109375 126.652344 C 223.914062 127.121094 223.636719 127.535156 223.277344 127.894531 C 222.917969 128.253906 222.503906 128.53125 222.03125 128.722656 C 221.5625 128.917969 221.074219 129.015625 220.5625 129.015625 C 220.054688 129.015625 219.566406 128.917969 219.09375 128.722656 C 218.625 128.527344 218.210938 128.253906 217.851562 127.894531 C 217.492188 127.535156 217.214844 127.121094 217.019531 126.652344 C 216.824219 126.183594 216.726562 125.695312 216.726562 125.1875 C 216.726562 124.679688 216.824219 124.191406 217.019531 123.722656 C 217.214844 123.253906 217.492188 122.839844 217.851562 122.480469 C 218.210938 122.121094 218.625 121.84375 219.09375 121.648438 C 219.566406 121.453125 220.054688 121.355469 220.566406 121.355469 Z M 205.386719 109.917969 C 204.875 109.917969 204.386719 110.015625 203.917969 110.210938 C 203.445312 110.40625 203.03125 110.679688 202.671875 111.039062 C 202.3125 111.398438 202.035156 111.8125 201.839844 112.28125 C 201.644531 112.75 201.546875 113.238281 201.546875 113.746094 C 201.546875 114.253906 201.644531 114.742188 201.839844 115.210938 C 202.03125 115.679688 202.308594 116.09375 202.671875 116.453125 C 203.03125 116.8125 203.445312 117.089844 203.914062 117.285156 C 204.386719 117.480469 204.875 117.574219 205.386719 117.574219 C 205.894531 117.574219 206.382812 117.476562 206.855469 117.285156 C 207.324219 117.089844 207.738281 116.8125 208.101562 116.453125 C 208.460938 116.09375 208.738281 115.679688 208.933594 115.210938 C 209.125 114.742188 209.222656 114.253906 209.222656 113.746094 C 209.222656 113.238281 209.125 112.75 208.929688 112.28125 C 208.734375 111.8125 208.457031 111.398438 208.097656 111.039062 C 207.738281 110.679688 207.324219 110.402344 206.855469 110.207031 C 206.382812 110.011719 205.894531 109.914062 205.386719 109.914062 Z M 167.871094 145.039062 L 168.742188 135.058594 L 173.957031 138.414062 L 171.460938 145.039062 Z M 173.515625 145.039062 L 184.25 145.039062 L 175.609375 139.476562 Z M 166.820312 146.957031 C 166.632812 146.945312 166.449219 146.972656 166.273438 147.035156 C 166.097656 147.101562 165.941406 147.199219 165.800781 147.328125 C 165.664062 147.457031 165.558594 147.605469 165.484375 147.78125 C 165.410156 147.953125 165.375 148.132812 165.375 148.320312 C 165.375 148.507812 165.410156 148.6875 165.484375 148.863281 C 165.558594 149.035156 165.664062 149.183594 165.800781 149.316406 C 165.941406 149.445312 166.097656 149.539062 166.273438 149.605469 C 166.449219 149.667969 166.632812 149.695312 166.820312 149.683594 L 210.144531 149.683594 C 210.332031 149.695312 210.515625 149.667969 210.691406 149.605469 C 210.871094 149.539062 211.027344 149.445312 211.164062 149.316406 C 211.300781 149.183594 211.40625 149.035156 211.480469 148.863281 C 211.554688 148.6875 211.59375 148.507812 211.59375 148.320312 C 211.59375 148.132812 211.554688 147.953125 211.480469 147.78125 C 211.40625 147.605469 211.300781 147.457031 211.164062 147.328125 C 211.027344 147.199219 210.871094 147.101562 210.691406 147.035156 C 210.515625 146.972656 210.332031 146.945312 210.144531 146.957031 Z M 176.304688 137.644531 L 178.574219 131.625 L 184.863281 143.152344 Z M 187.511719 101.558594 C 187 101.558594 186.511719 101.65625 186.042969 101.847656 C 185.570312 102.042969 185.15625 102.320312 184.796875 102.679688 C 184.4375 103.039062 184.160156 103.449219 183.964844 103.921875 C 183.769531 104.390625 183.671875 104.878906 183.671875 105.386719 C 183.671875 105.890625 183.769531 106.378906 183.964844 106.847656 C 184.160156 107.320312 184.4375 107.730469 184.796875 108.089844 C 185.15625 108.449219 185.570312 108.726562 186.042969 108.921875 C 186.511719 109.113281 187 109.210938 187.511719 109.210938 C 188.019531 109.210938 188.507812 109.117188 188.980469 108.921875 C 189.449219 108.726562 189.863281 108.449219 190.226562 108.089844 C 190.585938 107.730469 190.863281 107.320312 191.058594 106.847656 C 191.25 106.378906 191.347656 105.890625 191.347656 105.382812 C 191.347656 104.878906 191.25 104.390625 191.054688 103.917969 C 190.863281 103.449219 190.585938 103.035156 190.222656 102.675781 C 189.863281 102.316406 189.449219 102.039062 188.980469 101.847656 C 188.507812 101.652344 188.019531 101.554688 187.511719 101.550781 Z M 166.125 142.9375 L 166.914062 133.882812 L 158.960938 128.761719 C 158.726562 129.054688 158.464844 129.324219 158.179688 129.566406 Z M 154.457031 121.359375 C 154.964844 121.359375 155.457031 121.453125 155.925781 121.648438 C 156.398438 121.84375 156.8125 122.121094 157.171875 122.480469 C 157.53125 122.835938 157.808594 123.25 158.003906 123.71875 C 158.199219 124.1875 158.296875 124.675781 158.296875 125.183594 C 158.296875 125.691406 158.199219 126.179688 158.003906 126.648438 C 157.808594 127.117188 157.53125 127.53125 157.171875 127.890625 C 156.8125 128.25 156.398438 128.527344 155.925781 128.722656 C 155.457031 128.914062 154.964844 129.011719 154.457031 129.011719 C 153.949219 129.011719 153.460938 128.914062 152.988281 128.722656 C 152.519531 128.527344 152.105469 128.25 151.742188 127.890625 C 151.382812 127.53125 151.105469 127.117188 150.910156 126.648438 C 150.71875 126.179688 150.621094 125.691406 150.621094 125.183594 C 150.621094 124.675781 150.71875 124.1875 150.910156 123.71875 C 151.105469 123.25 151.382812 122.835938 151.742188 122.476562 C 152.105469 122.117188 152.519531 121.84375 152.988281 121.648438 C 153.460938 121.453125 153.949219 121.355469 154.457031 121.355469 Z M 154.457031 121.359375 " fill-opacity="1" fill-rule="evenodd"/></g><g fill="#2e2e2e" fill-opacity="1"><g transform="translate(89.796385, 200.249987)"><g><path d="M 16.96875 0.203125 C 16.570312 0.203125 16.296875 0.0664062 16.140625 -0.203125 L 7.21875 -20.390625 L 7.09375 -20.390625 L 7.171875 -4.640625 C 7.203125 -3.921875 7.253906 -3.367188 7.328125 -2.984375 C 7.410156 -2.609375 7.628906 -2.28125 7.984375 -2 C 8.347656 -1.726562 8.910156 -1.59375 9.671875 -1.59375 L 9.90625 -1.59375 C 10.175781 -1.59375 10.367188 -1.546875 10.484375 -1.453125 C 10.609375 -1.359375 10.679688 -1.125 10.703125 -0.75 C 10.703125 -0.507812 10.640625 -0.300781 10.515625 -0.125 C 10.398438 0.0390625 10.226562 0.125 10 0.125 L 9 0.078125 C 7.78125 0.0234375 6.910156 0 6.390625 0 C 5.484375 0 4.171875 0.0390625 2.453125 0.125 C 2.222656 0.125 2.046875 0.0390625 1.921875 -0.125 C 1.804688 -0.300781 1.75 -0.507812 1.75 -0.75 C 1.769531 -1.144531 1.847656 -1.382812 1.984375 -1.46875 C 2.117188 -1.550781 2.367188 -1.59375 2.734375 -1.59375 C 3.503906 -1.59375 4.066406 -1.726562 4.421875 -2 C 4.773438 -2.28125 4.988281 -2.609375 5.0625 -2.984375 C 5.144531 -3.367188 5.203125 -3.921875 5.234375 -4.640625 L 5.3125 -20.390625 C 5.3125 -21.203125 5.21875 -21.8125 5.03125 -22.21875 C 4.851562 -22.632812 4.582031 -22.925781 4.21875 -23.09375 C 3.863281 -23.269531 3.34375 -23.425781 2.65625 -23.5625 C 2.550781 -23.582031 2.390625 -23.613281 2.171875 -23.65625 C 1.960938 -23.695312 1.828125 -23.773438 1.765625 -23.890625 C 1.703125 -24.015625 1.671875 -24.207031 1.671875 -24.46875 C 1.671875 -24.78125 1.753906 -24.988281 1.921875 -25.09375 C 2.097656 -25.207031 2.367188 -25.265625 2.734375 -25.265625 C 4.296875 -25.265625 5.578125 -25.164062 6.578125 -24.96875 C 7.585938 -24.769531 8.46875 -24.363281 9.21875 -23.75 C 9.96875 -23.144531 10.597656 -22.25 11.109375 -21.0625 L 17.921875 -5.75 L 18.046875 -5.75 L 25.859375 -25.015625 L 28.109375 -25.015625 C 29.566406 -25.015625 31.140625 -25.054688 32.828125 -25.140625 C 33.066406 -25.140625 33.242188 -25.050781 33.359375 -24.875 C 33.484375 -24.707031 33.546875 -24.503906 33.546875 -24.265625 C 33.523438 -23.867188 33.441406 -23.628906 33.296875 -23.546875 C 33.148438 -23.472656 32.90625 -23.4375 32.5625 -23.4375 C 31.789062 -23.4375 31.21875 -23.296875 30.84375 -23.015625 C 30.476562 -22.742188 30.25 -22.398438 30.15625 -21.984375 C 30.0625 -21.578125 30.003906 -21.046875 29.984375 -20.390625 L 29.984375 -4.640625 C 30.003906 -3.972656 30.0625 -3.4375 30.15625 -3.03125 C 30.25 -2.625 30.476562 -2.28125 30.84375 -2 C 31.21875 -1.726562 31.789062 -1.59375 32.5625 -1.59375 L 32.796875 -1.59375 C 33.035156 -1.59375 33.210938 -1.546875 33.328125 -1.453125 C 33.453125 -1.359375 33.523438 -1.125 33.546875 -0.75 C 33.546875 -0.507812 33.484375 -0.300781 33.359375 -0.125 C 33.242188 0.0390625 33.066406 0.125 32.828125 0.125 C 31.140625 0.0390625 29.554688 0 28.078125 0 C 26.546875 0 24.921875 0.0390625 23.203125 0.125 C 22.960938 0.125 22.78125 0.0390625 22.65625 -0.125 C 22.539062 -0.300781 22.484375 -0.507812 22.484375 -0.75 C 22.515625 -1.144531 22.59375 -1.382812 22.71875 -1.46875 C 22.851562 -1.550781 23.101562 -1.59375 23.46875 -1.59375 C 24.238281 -1.59375 24.804688 -1.726562 25.171875 -2 C 25.546875 -2.28125 25.78125 -2.625 25.875 -3.03125 C 25.96875 -3.4375 26.023438 -3.972656 26.046875 -4.640625 L 26.046875 -20.390625 L 25.9375 -20.390625 L 17.765625 -0.203125 C 17.660156 0.0664062 17.394531 0.203125 16.96875 0.203125 Z M 16.96875 0.203125 "/></g></g></g><g fill="#2e2e2e" fill-opacity="1"><g transform="translate(133.103238, 200.249987)"><g><path d="M 2.375 0.125 C 2.132812 0.125 1.957031 0.0390625 1.84375 -0.125 C 1.726562 -0.300781 1.671875 -0.507812 1.671875 -0.75 C 1.691406 -1.144531 1.773438 -1.382812 1.921875 -1.46875 C 2.066406 -1.550781 2.3125 -1.59375 2.65625 -1.59375 C 3.425781 -1.59375 3.992188 -1.726562 4.359375 -2 C 4.734375 -2.28125 4.972656 -2.617188 5.078125 -3.015625 C 5.179688 -3.410156 5.25 -3.953125 5.28125 -4.640625 L 5.28125 -20.390625 C 5.25 -21.078125 5.179688 -21.617188 5.078125 -22.015625 C 4.972656 -22.410156 4.734375 -22.742188 4.359375 -23.015625 C 3.992188 -23.296875 3.425781 -23.4375 2.65625 -23.4375 L 2.421875 -23.4375 C 2.179688 -23.4375 2 -23.484375 1.875 -23.578125 C 1.757812 -23.671875 1.691406 -23.898438 1.671875 -24.265625 C 1.671875 -24.503906 1.726562 -24.707031 1.84375 -24.875 C 1.957031 -25.050781 2.132812 -25.140625 2.375 -25.140625 C 4.09375 -25.054688 5.664062 -25.015625 7.09375 -25.015625 C 8.6875 -25.015625 10.34375 -25.054688 12.0625 -25.140625 C 12.289062 -25.140625 12.460938 -25.050781 12.578125 -24.875 C 12.703125 -24.707031 12.765625 -24.503906 12.765625 -24.265625 C 12.742188 -23.867188 12.660156 -23.628906 12.515625 -23.546875 C 12.367188 -23.472656 12.109375 -23.4375 11.734375 -23.4375 C 10.972656 -23.4375 10.40625 -23.296875 10.03125 -23.015625 C 9.664062 -22.742188 9.4375 -22.398438 9.34375 -21.984375 C 9.25 -21.578125 9.1875 -21.046875 9.15625 -20.390625 L 9.15625 -4.640625 C 9.1875 -3.972656 9.25 -3.4375 9.34375 -3.03125 C 9.4375 -2.625 9.664062 -2.28125 10.03125 -2 C 10.40625 -1.726562 10.972656 -1.59375 11.734375 -1.59375 L 11.96875 -1.59375 C 12.238281 -1.59375 12.429688 -1.546875 12.546875 -1.453125 C 12.671875 -1.359375 12.742188 -1.125 12.765625 -0.75 C 12.765625 -0.507812 12.703125 -0.300781 12.578125 -0.125 C 12.460938 0.0390625 12.289062 0.125 12.0625 0.125 C 10.363281 0.0390625 8.722656 0 7.140625 0 C 5.679688 0 4.09375 0.0390625 2.375 0.125 Z M 2.375 0.125 "/></g></g></g><g fill="#2e2e2e" fill-opacity="1"><g transform="translate(155.590553, 200.249987)"><g><path d="M 2.453125 0.125 C 2.222656 0.125 2.046875 0.0390625 1.921875 -0.125 C 1.804688 -0.300781 1.75 -0.507812 1.75 -0.75 C 1.769531 -1.144531 1.847656 -1.382812 1.984375 -1.46875 C 2.117188 -1.550781 2.367188 -1.59375 2.734375 -1.59375 C 3.503906 -1.59375 4.066406 -1.726562 4.421875 -2 C 4.773438 -2.28125 4.988281 -2.609375 5.0625 -2.984375 C 5.144531 -3.367188 5.203125 -3.921875 5.234375 -4.640625 L 5.3125 -20.390625 C 5.3125 -21.179688 5.222656 -21.78125 5.046875 -22.1875 C 4.878906 -22.59375 4.609375 -22.890625 4.234375 -23.078125 C 3.867188 -23.265625 3.34375 -23.425781 2.65625 -23.5625 C 2.207031 -23.632812 1.929688 -23.707031 1.828125 -23.78125 C 1.722656 -23.863281 1.671875 -24.09375 1.671875 -24.46875 C 1.671875 -24.78125 1.753906 -24.988281 1.921875 -25.09375 C 2.097656 -25.207031 2.367188 -25.265625 2.734375 -25.265625 C 4.367188 -25.265625 5.660156 -25.148438 6.609375 -24.921875 C 7.566406 -24.703125 8.410156 -24.300781 9.140625 -23.71875 C 9.867188 -23.132812 10.671875 -22.25 11.546875 -21.0625 L 22.40625 -6.78125 L 22.53125 -6.78125 L 22.453125 -20.390625 C 22.421875 -21.097656 22.363281 -21.644531 22.28125 -22.03125 C 22.207031 -22.414062 21.988281 -22.742188 21.625 -23.015625 C 21.269531 -23.296875 20.710938 -23.4375 19.953125 -23.4375 L 19.703125 -23.4375 C 19.441406 -23.4375 19.25 -23.484375 19.125 -23.578125 C 19.007812 -23.671875 18.941406 -23.898438 18.921875 -24.265625 C 18.921875 -24.503906 18.984375 -24.707031 19.109375 -24.875 C 19.242188 -25.050781 19.414062 -25.140625 19.625 -25.140625 C 21.320312 -25.054688 22.59375 -25.015625 23.4375 -25.015625 C 23.9375 -25.015625 24.898438 -25.046875 26.328125 -25.109375 L 27.171875 -25.140625 C 27.398438 -25.140625 27.570312 -25.050781 27.6875 -24.875 C 27.8125 -24.707031 27.875 -24.503906 27.875 -24.265625 C 27.851562 -23.867188 27.773438 -23.628906 27.640625 -23.546875 C 27.503906 -23.472656 27.253906 -23.4375 26.890625 -23.4375 C 26.117188 -23.4375 25.554688 -23.296875 25.203125 -23.015625 C 24.847656 -22.742188 24.628906 -22.414062 24.546875 -22.03125 C 24.460938 -21.644531 24.410156 -21.097656 24.390625 -20.390625 L 24.3125 -0.390625 C 24.28125 -0.046875 23.945312 0.125 23.3125 0.125 C 22.8125 0.125 22.429688 -0.046875 22.171875 -0.390625 L 7.21875 -20.390625 L 7.09375 -20.390625 L 7.171875 -4.640625 C 7.203125 -3.921875 7.253906 -3.367188 7.328125 -2.984375 C 7.410156 -2.609375 7.628906 -2.28125 7.984375 -2 C 8.347656 -1.726562 8.910156 -1.59375 9.671875 -1.59375 L 9.90625 -1.59375 C 10.175781 -1.59375 10.367188 -1.546875 10.484375 -1.453125 C 10.609375 -1.359375 10.679688 -1.125 10.703125 -0.75 C 10.703125 -0.507812 10.640625 -0.300781 10.515625 -0.125 C 10.398438 0.0390625 10.226562 0.125 10 0.125 C 8.300781 0.0390625 7.015625 0 6.140625 0 C 5.617188 0 4.695312 0.0234375 3.375 0.078125 Z M 2.453125 0.125 "/></g></g></g><g fill="#2e2e2e" fill-opacity="1"><g transform="translate(192.869651, 200.249987)"><g><path d="M 7.09375 0.125 C 6.851562 0.125 6.675781 0.0390625 6.5625 -0.125 C 6.445312 -0.300781 6.390625 -0.507812 6.390625 -0.75 C 6.410156 -1.144531 6.488281 -1.382812 6.625 -1.46875 C 6.757812 -1.550781 7.007812 -1.59375 7.375 -1.59375 C 8.144531 -1.59375 8.710938 -1.726562 9.078125 -2 C 9.453125 -2.28125 9.679688 -2.625 9.765625 -3.03125 C 9.859375 -3.4375 9.921875 -3.972656 9.953125 -4.640625 L 9.953125 -23.5625 L 7.21875 -23.5625 C 6.320312 -23.53125 5.628906 -23.335938 5.140625 -22.984375 C 4.648438 -22.628906 4.273438 -22.097656 4.015625 -21.390625 C 3.765625 -20.691406 3.550781 -19.695312 3.375 -18.40625 C 3.34375 -18.1875 3.179688 -18.007812 2.890625 -17.875 C 2.597656 -17.75 2.296875 -17.6875 1.984375 -17.6875 C 1.742188 -17.6875 1.523438 -17.757812 1.328125 -17.90625 C 1.128906 -18.050781 1.03125 -18.242188 1.03125 -18.484375 L 1.15625 -24.078125 C 1.15625 -24.703125 1.507812 -25.015625 2.21875 -25.015625 L 21.609375 -25.015625 C 22.296875 -25.015625 22.640625 -24.703125 22.640625 -24.078125 L 22.796875 -18.484375 C 22.796875 -18.242188 22.691406 -18.050781 22.484375 -17.90625 C 22.273438 -17.757812 22.050781 -17.6875 21.8125 -17.6875 C 21.488281 -17.6875 21.1875 -17.75 20.90625 -17.875 C 20.632812 -18.007812 20.488281 -18.1875 20.46875 -18.40625 C 20.25 -19.726562 20.019531 -20.734375 19.78125 -21.421875 C 19.550781 -22.109375 19.179688 -22.628906 18.671875 -22.984375 C 18.171875 -23.335938 17.472656 -23.53125 16.578125 -23.5625 L 13.875 -23.5625 L 13.875 -4.640625 C 13.90625 -3.972656 13.96875 -3.4375 14.0625 -3.03125 C 14.15625 -2.625 14.382812 -2.28125 14.75 -2 C 15.125 -1.726562 15.691406 -1.59375 16.453125 -1.59375 L 16.6875 -1.59375 C 16.925781 -1.59375 17.101562 -1.546875 17.21875 -1.453125 C 17.34375 -1.359375 17.421875 -1.125 17.453125 -0.75 C 17.453125 -0.507812 17.390625 -0.300781 17.265625 -0.125 C 17.148438 0.0390625 16.972656 0.125 16.734375 0.125 C 15.046875 0.0390625 13.488281 0 12.0625 0 C 10.46875 0 8.8125 0.0390625 7.09375 0.125 Z M 7.09375 0.125 "/></g></g></g><g fill="#2e2e2e" fill-opacity="1"><g transform="translate(224.715844, 200.249987)"><g><path d="M 2.375 0.125 C 2.164062 0.125 2 0.0390625 1.875 -0.125 C 1.757812 -0.300781 1.703125 -0.507812 1.703125 -0.75 C 1.734375 -1.144531 1.8125 -1.382812 1.9375 -1.46875 C 2.070312 -1.550781 2.328125 -1.59375 2.703125 -1.59375 C 3.460938 -1.59375 4.023438 -1.726562 4.390625 -2 C 4.765625 -2.28125 5 -2.625 5.09375 -3.03125 C 5.1875 -3.4375 5.25 -3.972656 5.28125 -4.640625 L 5.28125 -20.390625 C 5.25 -21.046875 5.1875 -21.578125 5.09375 -21.984375 C 5 -22.398438 4.765625 -22.742188 4.390625 -23.015625 C 4.023438 -23.296875 3.460938 -23.4375 2.703125 -23.4375 L 2.453125 -23.4375 C 2.191406 -23.4375 2.007812 -23.484375 1.90625 -23.578125 C 1.800781 -23.671875 1.734375 -23.898438 1.703125 -24.265625 C 1.703125 -24.503906 1.757812 -24.707031 1.875 -24.875 C 2 -25.050781 2.164062 -25.140625 2.375 -25.140625 C 4.125 -25.054688 5.695312 -25.015625 7.09375 -25.015625 L 19.546875 -25.015625 C 20.234375 -25.015625 20.578125 -24.703125 20.578125 -24.078125 L 20.703125 -18.515625 C 20.703125 -18.273438 20.582031 -18.082031 20.34375 -17.9375 C 20.101562 -17.789062 19.863281 -17.71875 19.625 -17.71875 C 19.3125 -17.71875 19.035156 -17.773438 18.796875 -17.890625 C 18.554688 -18.015625 18.425781 -18.195312 18.40625 -18.4375 C 18.1875 -19.738281 17.953125 -20.722656 17.703125 -21.390625 C 17.453125 -22.066406 17.082031 -22.566406 16.59375 -22.890625 C 16.101562 -23.222656 15.410156 -23.40625 14.515625 -23.4375 L 9.203125 -23.4375 L 9.203125 -13.359375 L 16.375 -13.359375 C 16.5625 -13.335938 16.707031 -13.238281 16.8125 -13.0625 C 16.914062 -12.894531 16.96875 -12.691406 16.96875 -12.453125 C 16.96875 -12.242188 16.914062 -12.054688 16.8125 -11.890625 C 16.707031 -11.734375 16.5625 -11.65625 16.375 -11.65625 L 9.203125 -11.65625 L 9.203125 -4.15625 C 9.253906 -3.601562 9.316406 -3.160156 9.390625 -2.828125 C 9.472656 -2.503906 9.710938 -2.207031 10.109375 -1.9375 C 10.503906 -1.675781 11.125 -1.5625 11.96875 -1.59375 L 15.625 -1.59375 C 16.550781 -1.613281 17.25 -1.757812 17.71875 -2.03125 C 18.195312 -2.3125 18.570312 -2.742188 18.84375 -3.328125 C 19.125 -3.910156 19.46875 -4.863281 19.875 -6.1875 C 20.050781 -6.664062 20.5 -6.847656 21.21875 -6.734375 C 21.476562 -6.679688 21.707031 -6.578125 21.90625 -6.421875 C 22.101562 -6.265625 22.191406 -6.066406 22.171875 -5.828125 L 21.375 -0.828125 C 21.289062 -0.484375 21.171875 -0.257812 21.015625 -0.15625 C 20.859375 -0.0507812 20.59375 0 20.21875 0 L 7.140625 0 C 5.710938 0 4.125 0.0390625 2.375 0.125 Z M 2.375 0.125 "/></g></g></g><g fill="#2e2e2e" fill-opacity="1"><g transform="translate(256.324103, 200.249987)"><g><path d="M 2.375 0.125 C 2.164062 0.125 2 0.0390625 1.875 -0.125 C 1.757812 -0.300781 1.703125 -0.507812 1.703125 -0.75 C 1.734375 -1.144531 1.8125 -1.382812 1.9375 -1.46875 C 2.070312 -1.550781 2.328125 -1.59375 2.703125 -1.59375 C 3.460938 -1.59375 4.023438 -1.726562 4.390625 -2 C 4.765625 -2.28125 5 -2.625 5.09375 -3.03125 C 5.1875 -3.4375 5.25 -3.972656 5.28125 -4.640625 L 5.28125 -20.390625 C 5.25 -21.046875 5.1875 -21.578125 5.09375 -21.984375 C 5 -22.398438 4.765625 -22.742188 4.390625 -23.015625 C 4.023438 -23.296875 3.460938 -23.4375 2.703125 -23.4375 L 2.453125 -23.4375 C 2.191406 -23.4375 2.007812 -23.484375 1.90625 -23.578125 C 1.800781 -23.671875 1.734375 -23.898438 1.703125 -24.265625 C 1.703125 -24.503906 1.757812 -24.707031 1.875 -24.875 C 2 -25.050781 2.164062 -25.140625 2.375 -25.140625 C 4.125 -25.054688 5.695312 -25.015625 7.09375 -25.015625 L 13.28125 -25.015625 C 15.820312 -25.015625 18.128906 -24.503906 20.203125 -23.484375 C 22.273438 -22.472656 23.910156 -21.015625 25.109375 -19.109375 C 26.316406 -17.210938 26.921875 -14.96875 26.921875 -12.375 C 26.921875 -9.675781 26.238281 -7.394531 24.875 -5.53125 C 23.519531 -3.664062 21.75 -2.273438 19.5625 -1.359375 C 17.382812 -0.453125 15.054688 0 12.578125 0 L 7.09375 0 C 5.695312 0 4.125 0.0390625 2.375 0.125 Z M 13.171875 -1.46875 C 16.265625 -1.46875 18.53125 -2.425781 19.96875 -4.34375 C 21.40625 -6.257812 22.125 -8.9375 22.125 -12.375 C 22.125 -14.539062 21.734375 -16.472656 20.953125 -18.171875 C 20.171875 -19.878906 19.039062 -21.207031 17.5625 -22.15625 C 16.082031 -23.113281 14.328125 -23.59375 12.296875 -23.59375 L 9.203125 -23.5625 L 9.203125 -4.15625 C 9.203125 -3.132812 9.507812 -2.429688 10.125 -2.046875 C 10.75 -1.660156 11.765625 -1.46875 13.171875 -1.46875 Z M 13.171875 -1.46875 "/></g></g></g><g fill="#e49f38" fill-opacity="1"><g transform="translate(103.942741, 158.891224)"><g><path d="M 6.796875 -0.96875 L 6.796875 0 L 1.15625 0 L 1.15625 -7.75 L 6.640625 -7.75 L 6.640625 -6.796875 L 2.265625 -6.796875 L 2.265625 -4.40625 L 6.15625 -4.40625 L 6.15625 -3.46875 L 2.265625 -3.46875 L 2.265625 -0.96875 Z M 6.796875 -0.96875 "/></g></g></g><g fill="#e49f38" fill-opacity="1"><g transform="translate(114.665076, 158.891224)"><g><path d="M 3.421875 0.09375 C 2.835938 0.09375 2.273438 0.00390625 1.734375 -0.171875 C 1.191406 -0.359375 0.765625 -0.597656 0.453125 -0.890625 L 0.859375 -1.75 C 1.160156 -1.476562 1.539062 -1.257812 2 -1.09375 C 2.457031 -0.9375 2.929688 -0.859375 3.421875 -0.859375 C 4.066406 -0.859375 4.546875 -0.960938 4.859375 -1.171875 C 5.179688 -1.390625 5.34375 -1.679688 5.34375 -2.046875 C 5.34375 -2.316406 5.253906 -2.535156 5.078125 -2.703125 C 4.898438 -2.867188 4.679688 -2.992188 4.421875 -3.078125 C 4.171875 -3.171875 3.816406 -3.269531 3.359375 -3.375 C 2.773438 -3.519531 2.300781 -3.660156 1.9375 -3.796875 C 1.582031 -3.941406 1.273438 -4.160156 1.015625 -4.453125 C 0.765625 -4.742188 0.640625 -5.132812 0.640625 -5.625 C 0.640625 -6.039062 0.75 -6.414062 0.96875 -6.75 C 1.1875 -7.082031 1.515625 -7.347656 1.953125 -7.546875 C 2.398438 -7.742188 2.953125 -7.84375 3.609375 -7.84375 C 4.066406 -7.84375 4.515625 -7.78125 4.953125 -7.65625 C 5.398438 -7.539062 5.785156 -7.375 6.109375 -7.15625 L 5.734375 -6.265625 C 5.410156 -6.472656 5.0625 -6.628906 4.6875 -6.734375 C 4.320312 -6.847656 3.960938 -6.90625 3.609375 -6.90625 C 2.984375 -6.90625 2.515625 -6.789062 2.203125 -6.5625 C 1.890625 -6.332031 1.734375 -6.035156 1.734375 -5.671875 C 1.734375 -5.398438 1.820312 -5.179688 2 -5.015625 C 2.175781 -4.859375 2.394531 -4.734375 2.65625 -4.640625 C 2.914062 -4.546875 3.269531 -4.445312 3.71875 -4.34375 C 4.300781 -4.195312 4.769531 -4.054688 5.125 -3.921875 C 5.476562 -3.785156 5.78125 -3.570312 6.03125 -3.28125 C 6.289062 -2.988281 6.421875 -2.597656 6.421875 -2.109375 C 6.421875 -1.703125 6.3125 -1.332031 6.09375 -1 C 5.875 -0.664062 5.535156 -0.398438 5.078125 -0.203125 C 4.628906 -0.00390625 4.078125 0.09375 3.421875 0.09375 Z M 3.421875 0.09375 "/></g></g></g><g fill="#e49f38" fill-opacity="1"><g transform="translate(124.844766, 158.891224)"><g><path d="M 2.703125 -6.796875 L 0.046875 -6.796875 L 0.046875 -7.75 L 6.453125 -7.75 L 6.453125 -6.796875 L 3.796875 -6.796875 L 3.796875 0 L 2.703125 0 Z M 2.703125 -6.796875 "/></g></g></g><g fill="#e49f38" fill-opacity="1"><g transform="translate(134.647935, 158.891224)"><g><path d="M 1.15625 -7.75 L 4.4375 -7.75 C 5.25 -7.75 5.972656 -7.585938 6.609375 -7.265625 C 7.242188 -6.941406 7.738281 -6.484375 8.09375 -5.890625 C 8.445312 -5.304688 8.625 -4.632812 8.625 -3.875 C 8.625 -3.113281 8.445312 -2.4375 8.09375 -1.84375 C 7.738281 -1.257812 7.242188 -0.804688 6.609375 -0.484375 C 5.972656 -0.160156 5.25 0 4.4375 0 L 1.15625 0 Z M 4.359375 -0.96875 C 4.992188 -0.96875 5.546875 -1.085938 6.015625 -1.328125 C 6.492188 -1.566406 6.863281 -1.90625 7.125 -2.34375 C 7.382812 -2.789062 7.515625 -3.300781 7.515625 -3.875 C 7.515625 -4.445312 7.382812 -4.953125 7.125 -5.390625 C 6.863281 -5.835938 6.492188 -6.179688 6.015625 -6.421875 C 5.546875 -6.671875 4.992188 -6.796875 4.359375 -6.796875 L 2.265625 -6.796875 L 2.265625 -0.96875 Z M 4.359375 -0.96875 "/></g></g></g><g fill="#e49f38" fill-opacity="1"><g transform="translate(104.684887, 225.925034)"><g><path d="M 4.625 0.09375 C 3.851562 0.09375 3.15625 -0.078125 2.53125 -0.421875 C 1.90625 -0.765625 1.414062 -1.238281 1.0625 -1.84375 C 0.707031 -2.445312 0.53125 -3.125 0.53125 -3.875 C 0.53125 -4.625 0.707031 -5.300781 1.0625 -5.90625 C 1.414062 -6.507812 1.90625 -6.984375 2.53125 -7.328125 C 3.164062 -7.671875 3.867188 -7.84375 4.640625 -7.84375 C 5.242188 -7.84375 5.796875 -7.738281 6.296875 -7.53125 C 6.804688 -7.332031 7.238281 -7.035156 7.59375 -6.640625 L 6.875 -5.9375 C 6.289062 -6.550781 5.5625 -6.859375 4.6875 -6.859375 C 4.113281 -6.859375 3.59375 -6.726562 3.125 -6.46875 C 2.65625 -6.207031 2.289062 -5.847656 2.03125 -5.390625 C 1.769531 -4.941406 1.640625 -4.4375 1.640625 -3.875 C 1.640625 -3.3125 1.769531 -2.800781 2.03125 -2.34375 C 2.289062 -1.894531 2.65625 -1.539062 3.125 -1.28125 C 3.59375 -1.019531 4.113281 -0.890625 4.6875 -0.890625 C 5.550781 -0.890625 6.28125 -1.203125 6.875 -1.828125 L 7.59375 -1.125 C 7.238281 -0.726562 6.804688 -0.425781 6.296875 -0.21875 C 5.785156 -0.0078125 5.226562 0.09375 4.625 0.09375 Z M 4.625 0.09375 "/></g></g></g><g fill="#e49f38" fill-opacity="1"><g transform="translate(115.994155, 225.925034)"><g><path d="M 6.34375 0 L 4.671875 -2.375 C 4.460938 -2.363281 4.300781 -2.359375 4.1875 -2.359375 L 2.265625 -2.359375 L 2.265625 0 L 1.15625 0 L 1.15625 -7.75 L 4.1875 -7.75 C 5.1875 -7.75 5.972656 -7.507812 6.546875 -7.03125 C 7.128906 -6.550781 7.421875 -5.890625 7.421875 -5.046875 C 7.421875 -4.453125 7.269531 -3.941406 6.96875 -3.515625 C 6.675781 -3.097656 6.257812 -2.796875 5.71875 -2.609375 L 7.5625 0 Z M 4.15625 -3.296875 C 4.851562 -3.296875 5.382812 -3.445312 5.75 -3.75 C 6.125 -4.050781 6.3125 -4.484375 6.3125 -5.046875 C 6.3125 -5.609375 6.125 -6.039062 5.75 -6.34375 C 5.382812 -6.644531 4.851562 -6.796875 4.15625 -6.796875 L 2.265625 -6.796875 L 2.265625 -3.296875 Z M 4.15625 -3.296875 "/></g></g></g><g fill="#e49f38" fill-opacity="1"><g transform="translate(127.347723, 225.925034)"><g><path d="M 4.65625 0.09375 C 3.875 0.09375 3.171875 -0.078125 2.546875 -0.421875 C 1.921875 -0.765625 1.425781 -1.238281 1.0625 -1.84375 C 0.707031 -2.457031 0.53125 -3.132812 0.53125 -3.875 C 0.53125 -4.625 0.707031 -5.300781 1.0625 -5.90625 C 1.425781 -6.507812 1.921875 -6.984375 2.546875 -7.328125 C 3.171875 -7.671875 3.875 -7.84375 4.65625 -7.84375 C 5.4375 -7.84375 6.140625 -7.671875 6.765625 -7.328125 C 7.390625 -6.984375 7.878906 -6.507812 8.234375 -5.90625 C 8.597656 -5.300781 8.78125 -4.625 8.78125 -3.875 C 8.78125 -3.125 8.597656 -2.445312 8.234375 -1.84375 C 7.878906 -1.238281 7.390625 -0.765625 6.765625 -0.421875 C 6.140625 -0.078125 5.4375 0.09375 4.65625 0.09375 Z M 4.65625 -0.890625 C 5.226562 -0.890625 5.738281 -1.019531 6.1875 -1.28125 C 6.644531 -1.539062 7.003906 -1.894531 7.265625 -2.34375 C 7.535156 -2.800781 7.671875 -3.3125 7.671875 -3.875 C 7.671875 -4.4375 7.535156 -4.941406 7.265625 -5.390625 C 7.003906 -5.847656 6.644531 -6.207031 6.1875 -6.46875 C 5.738281 -6.726562 5.226562 -6.859375 4.65625 -6.859375 C 4.09375 -6.859375 3.578125 -6.726562 3.109375 -6.46875 C 2.648438 -6.207031 2.289062 -5.847656 2.03125 -5.390625 C 1.769531 -4.941406 1.640625 -4.4375 1.640625 -3.875 C 1.640625 -3.3125 1.769531 -2.800781 2.03125 -2.34375 C 2.289062 -1.894531 2.648438 -1.539062 3.109375 -1.28125 C 3.578125 -1.019531 4.09375 -0.890625 4.65625 -0.890625 Z M 4.65625 -0.890625 "/></g></g></g><g fill="#e49f38" fill-opacity="1"><g transform="translate(139.952691, 225.925034)"><g><path d="M 12.125 -7.75 L 9.53125 0 L 8.359375 0 L 6.25 -6.1875 L 4.125 0 L 2.953125 0 L 0.359375 -7.75 L 1.5 -7.75 L 3.59375 -1.453125 L 5.765625 -7.75 L 6.796875 -7.75 L 8.921875 -1.421875 L 11.0625 -7.75 Z M 12.125 -7.75 "/></g></g></g><g fill="#e49f38" fill-opacity="1"><g transform="translate(155.724903, 225.925034)"><g><path d="M 7.828125 -7.75 L 7.828125 0 L 6.921875 0 L 2.265625 -5.78125 L 2.265625 0 L 1.15625 0 L 1.15625 -7.75 L 2.078125 -7.75 L 6.71875 -1.96875 L 6.71875 -7.75 Z M 7.828125 -7.75 "/></g></g></g><g fill="#e49f38" fill-opacity="1"><g transform="translate(168.019782, 225.925034)"><g/></g></g><g fill="#e49f38" fill-opacity="1"><g transform="translate(174.301318, 225.925034)"><g><path d="M 8.359375 0 L 8.34375 -5.65625 L 5.53125 -0.9375 L 5.03125 -0.9375 L 2.234375 -5.609375 L 2.234375 0 L 1.15625 0 L 1.15625 -7.75 L 2.078125 -7.75 L 5.3125 -2.296875 L 8.5 -7.75 L 9.40625 -7.75 L 9.421875 0 Z M 8.359375 0 "/></g></g></g><g fill="#e49f38" fill-opacity="1"><g transform="translate(188.17983, 225.925034)"><g><path d="M 6.109375 -1.9375 L 1.984375 -1.9375 L 1.125 0 L -0.015625 0 L 3.5 -7.75 L 4.59375 -7.75 L 8.125 0 L 6.953125 0 Z M 5.71875 -2.828125 L 4.046875 -6.625 L 2.375 -2.828125 Z M 5.71875 -2.828125 "/></g></g></g><g fill="#e49f38" fill-opacity="1"><g transform="translate(199.588764, 225.925034)"><g><path d="M 6.34375 0 L 4.671875 -2.375 C 4.460938 -2.363281 4.300781 -2.359375 4.1875 -2.359375 L 2.265625 -2.359375 L 2.265625 0 L 1.15625 0 L 1.15625 -7.75 L 4.1875 -7.75 C 5.1875 -7.75 5.972656 -7.507812 6.546875 -7.03125 C 7.128906 -6.550781 7.421875 -5.890625 7.421875 -5.046875 C 7.421875 -4.453125 7.269531 -3.941406 6.96875 -3.515625 C 6.675781 -3.097656 6.257812 -2.796875 5.71875 -2.609375 L 7.5625 0 Z M 4.15625 -3.296875 C 4.851562 -3.296875 5.382812 -3.445312 5.75 -3.75 C 6.125 -4.050781 6.3125 -4.484375 6.3125 -5.046875 C 6.3125 -5.609375 6.125 -6.039062 5.75 -6.34375 C 5.382812 -6.644531 4.851562 -6.796875 4.15625 -6.796875 L 2.265625 -6.796875 L 2.265625 -3.296875 Z M 4.15625 -3.296875 "/></g></g></g><g fill="#e49f38" fill-opacity="1"><g transform="translate(210.942333, 225.925034)"><g><path d="M 3.6875 -3.4375 L 2.265625 -2 L 2.265625 0 L 1.15625 0 L 1.15625 -7.75 L 2.265625 -7.75 L 2.265625 -3.421875 L 6.484375 -7.75 L 7.75 -7.75 L 4.4375 -4.265625 L 7.953125 0 L 6.65625 0 Z M 3.6875 -3.4375 "/></g></g></g><g fill="#e49f38" fill-opacity="1"><g transform="translate(222.207301, 225.925034)"><g><path d="M 6.796875 -0.96875 L 6.796875 0 L 1.15625 0 L 1.15625 -7.75 L 6.640625 -7.75 L 6.640625 -6.796875 L 2.265625 -6.796875 L 2.265625 -4.40625 L 6.15625 -4.40625 L 6.15625 -3.46875 L 2.265625 -3.46875 L 2.265625 -0.96875 Z M 6.796875 -0.96875 "/></g></g></g><g fill="#e49f38" fill-opacity="1"><g transform="translate(232.929636, 225.925034)"><g><path d="M 2.703125 -6.796875 L 0.046875 -6.796875 L 0.046875 -7.75 L 6.453125 -7.75 L 6.453125 -6.796875 L 3.796875 -6.796875 L 3.796875 0 L 2.703125 0 Z M 2.703125 -6.796875 "/></g></g></g><g fill="#e49f38" fill-opacity="1"><g transform="translate(242.732805, 225.925034)"><g><path d="M 1.15625 -7.75 L 2.265625 -7.75 L 2.265625 0 L 1.15625 0 Z M 1.15625 -7.75 "/></g></g></g><g fill="#e49f38" fill-opacity="1"><g transform="translate(249.468385, 225.925034)"><g><path d="M 7.828125 -7.75 L 7.828125 0 L 6.921875 0 L 2.265625 -5.78125 L 2.265625 0 L 1.15625 0 L 1.15625 -7.75 L 2.078125 -7.75 L 6.71875 -1.96875 L 6.71875 -7.75 Z M 7.828125 -7.75 "/></g></g></g><g fill="#e49f38" fill-opacity="1"><g transform="translate(261.763264, 225.925034)"><g><path d="M 6.53125 -3.921875 L 7.59375 -3.921875 L 7.59375 -0.890625 C 7.21875 -0.578125 6.773438 -0.332031 6.265625 -0.15625 C 5.753906 0.0078125 5.21875 0.09375 4.65625 0.09375 C 3.875 0.09375 3.171875 -0.078125 2.546875 -0.421875 C 1.921875 -0.765625 1.425781 -1.238281 1.0625 -1.84375 C 0.707031 -2.445312 0.53125 -3.125 0.53125 -3.875 C 0.53125 -4.625 0.707031 -5.300781 1.0625 -5.90625 C 1.425781 -6.519531 1.921875 -6.992188 2.546875 -7.328125 C 3.179688 -7.671875 3.894531 -7.84375 4.6875 -7.84375 C 5.300781 -7.84375 5.863281 -7.738281 6.375 -7.53125 C 6.882812 -7.332031 7.316406 -7.035156 7.671875 -6.640625 L 6.984375 -5.953125 C 6.359375 -6.554688 5.609375 -6.859375 4.734375 -6.859375 C 4.140625 -6.859375 3.609375 -6.726562 3.140625 -6.46875 C 2.671875 -6.21875 2.300781 -5.863281 2.03125 -5.40625 C 1.769531 -4.957031 1.640625 -4.445312 1.640625 -3.875 C 1.640625 -3.3125 1.769531 -2.800781 2.03125 -2.34375 C 2.300781 -1.894531 2.671875 -1.539062 3.140625 -1.28125 C 3.609375 -1.019531 4.132812 -0.890625 4.71875 -0.890625 C 5.414062 -0.890625 6.019531 -1.054688 6.53125 -1.390625 Z M 6.53125 -3.921875 "/></g></g></g><g fill="#e49f38" fill-opacity="1"><g transform="translate(232.955805, 158.891224)"><g><path d="M 5.984375 -0.96875 L 5.984375 0 L 0.40625 0 L 0.40625 -0.75 L 3.5625 -3.796875 C 3.945312 -4.171875 4.207031 -4.488281 4.34375 -4.75 C 4.476562 -5.019531 4.546875 -5.296875 4.546875 -5.578125 C 4.546875 -5.984375 4.398438 -6.296875 4.109375 -6.515625 C 3.828125 -6.742188 3.421875 -6.859375 2.890625 -6.859375 C 2.035156 -6.859375 1.375 -6.578125 0.90625 -6.015625 L 0.15625 -6.671875 C 0.457031 -7.035156 0.851562 -7.320312 1.34375 -7.53125 C 1.832031 -7.738281 2.378906 -7.84375 2.984375 -7.84375 C 3.796875 -7.84375 4.441406 -7.648438 4.921875 -7.265625 C 5.410156 -6.878906 5.65625 -6.351562 5.65625 -5.6875 C 5.65625 -5.269531 5.566406 -4.875 5.390625 -4.5 C 5.210938 -4.132812 4.875 -3.71875 4.375 -3.25 L 2 -0.96875 Z M 5.984375 -0.96875 "/></g></g></g><g fill="#e49f38" fill-opacity="1"><g transform="translate(242.615007, 158.891224)"><g><path d="M 3.703125 0.09375 C 3.085938 0.09375 2.539062 -0.0625 2.0625 -0.375 C 1.582031 -0.695312 1.207031 -1.15625 0.9375 -1.75 C 0.664062 -2.34375 0.53125 -3.050781 0.53125 -3.875 C 0.53125 -4.695312 0.664062 -5.40625 0.9375 -6 C 1.207031 -6.601562 1.582031 -7.0625 2.0625 -7.375 C 2.539062 -7.6875 3.085938 -7.84375 3.703125 -7.84375 C 4.304688 -7.84375 4.84375 -7.6875 5.3125 -7.375 C 5.789062 -7.0625 6.164062 -6.601562 6.4375 -6 C 6.71875 -5.40625 6.859375 -4.695312 6.859375 -3.875 C 6.859375 -3.050781 6.71875 -2.34375 6.4375 -1.75 C 6.164062 -1.15625 5.789062 -0.695312 5.3125 -0.375 C 4.84375 -0.0625 4.304688 0.09375 3.703125 0.09375 Z M 3.703125 -0.890625 C 4.316406 -0.890625 4.8125 -1.144531 5.1875 -1.65625 C 5.5625 -2.164062 5.75 -2.90625 5.75 -3.875 C 5.75 -4.84375 5.5625 -5.582031 5.1875 -6.09375 C 4.8125 -6.601562 4.316406 -6.859375 3.703125 -6.859375 C 3.078125 -6.859375 2.578125 -6.601562 2.203125 -6.09375 C 1.828125 -5.582031 1.640625 -4.84375 1.640625 -3.875 C 1.640625 -2.90625 1.828125 -2.164062 2.203125 -1.65625 C 2.578125 -1.144531 3.078125 -0.890625 3.703125 -0.890625 Z M 3.703125 -0.890625 "/></g></g></g><g fill="#e49f38" fill-opacity="1"><g transform="translate(253.30412, 158.891224)"><g><path d="M 5.984375 -0.96875 L 5.984375 0 L 0.40625 0 L 0.40625 -0.75 L 3.5625 -3.796875 C 3.945312 -4.171875 4.207031 -4.488281 4.34375 -4.75 C 4.476562 -5.019531 4.546875 -5.296875 4.546875 -5.578125 C 4.546875 -5.984375 4.398438 -6.296875 4.109375 -6.515625 C 3.828125 -6.742188 3.421875 -6.859375 2.890625 -6.859375 C 2.035156 -6.859375 1.375 -6.578125 0.90625 -6.015625 L 0.15625 -6.671875 C 0.457031 -7.035156 0.851562 -7.320312 1.34375 -7.53125 C 1.832031 -7.738281 2.378906 -7.84375 2.984375 -7.84375 C 3.796875 -7.84375 4.441406 -7.648438 4.921875 -7.265625 C 5.410156 -6.878906 5.65625 -6.351562 5.65625 -5.6875 C 5.65625 -5.269531 5.566406 -4.875 5.390625 -4.5 C 5.210938 -4.132812 4.875 -3.71875 4.375 -3.25 L 2 -0.96875 Z M 5.984375 -0.96875 "/></g></g></g><g fill="#e49f38" fill-opacity="1"><g transform="translate(262.963322, 158.891224)"><g><path d="M 3.5 -4.5 C 4.257812 -4.425781 4.835938 -4.191406 5.234375 -3.796875 C 5.640625 -3.398438 5.84375 -2.894531 5.84375 -2.28125 C 5.84375 -1.84375 5.726562 -1.441406 5.5 -1.078125 C 5.28125 -0.722656 4.953125 -0.4375 4.515625 -0.21875 C 4.078125 -0.0078125 3.539062 0.09375 2.90625 0.09375 C 2.351562 0.09375 1.820312 0.0078125 1.3125 -0.15625 C 0.800781 -0.320312 0.382812 -0.554688 0.0625 -0.859375 L 0.5625 -1.734375 C 0.832031 -1.472656 1.171875 -1.265625 1.578125 -1.109375 C 1.992188 -0.960938 2.4375 -0.890625 2.90625 -0.890625 C 3.476562 -0.890625 3.925781 -1.007812 4.25 -1.25 C 4.570312 -1.5 4.734375 -1.835938 4.734375 -2.265625 C 4.734375 -2.691406 4.570312 -3.023438 4.25 -3.265625 C 3.9375 -3.503906 3.457031 -3.625 2.8125 -3.625 L 2.1875 -3.625 L 2.1875 -4.390625 L 4.140625 -6.796875 L 0.40625 -6.796875 L 0.40625 -7.75 L 5.53125 -7.75 L 5.53125 -7 Z M 3.5 -4.5 "/></g></g></g></svg>